<?xml version="1.0" encoding="utf-8"?>
<!-- Generator: Adobe Illustrator 20.0.0, SVG Export Plug-In . SVG Version: 6.00 Build 0)  -->
<svg version="1.1" id="Layer_1" xmlns="http://www.w3.org/2000/svg" xmlns:xlink="http://www.w3.org/1999/xlink" x="0px" y="0px"
	 viewBox="0 0 72.9 61" style="enable-background:new 0 0 72.9 61;" xml:space="preserve">
<style type="text/css">
	.st0{fill:none;stroke:#231F20;stroke-width:2.5;stroke-linecap:round;stroke-linejoin:round;stroke-miterlimit:10;}
</style>
<g>
	<path class="st0" d="M36,26.2L33,34.9l9.1,16.5c1.1,2,2.6,6.2-0.9,7.8c-4.2,1.9-5.3-1.3-6.7-3.3l-9-16.1L21.2,50H6.4
		c-2.5-0.1-5.2-1.3-5.2-3.8c0-4.1,2.6-4.8,4.9-4.8l8.7,0.1c0,0,8.8-20.1,8.8-20.1l-4,0l-4.7,4.4c-2.1,1.9-4.1,2.3-5.4,1.2
		c-1.6-1.3-1.8-3.4,0.2-5.4c1.2-1.2,7.8-8,7.8-8l12.4-0.1c-4.5-8.7,3.7-13.6,8.5-11.9C45.2,4,46.1,13.5,38,16.5l6.2,7.3l5.8,0
		c4.3-0.2,4.3,6.7,0.2,6.7h-8.7L36,26.2z"/>
	<path class="st0" d="M54.8,38.1c11.2-3.5,10.1-19.7,0.9-22.8"/>
	<path class="st0" d="M56.6,49.2c19.8-6.7,19.6-37.3,1.9-45"/>
</g>
</svg>
