<?xml version="1.0" encoding="utf-8"?>
<!-- Generator: Adobe Illustrator 17.1.0, SVG Export Plug-In . SVG Version: 6.00 Build 0)  -->
<!DOCTYPE svg PUBLIC "-//W3C//DTD SVG 1.1//EN" "http://www.w3.org/Graphics/SVG/1.1/DTD/svg11.dtd">
<svg version="1.1" id="Layer_1" xmlns="http://www.w3.org/2000/svg" xmlns:xlink="http://www.w3.org/1999/xlink" x="0px" y="0px"
	 viewBox="0 0 51.1 51.1" enable-background="new 0 0 51.1 51.1" xml:space="preserve">
<g>
	<rect x="1271" y="46.8" fill="none" width="237" height="27"/>
	<text transform="matrix(1 0 0 1 1331.4493 65.9172)" fill="#2D2D2D" font-family="'GillSans-Light'" font-size="28">5x savings</text>
	<g>
		<circle fill="none" stroke="#AD2125" stroke-width="25" stroke-miterlimit="10" cx="1389.8" cy="59.3" r="103"/>
		<g>
			<g>
				<g>
					<g>
						<path fill="none" stroke="#3B91CD" stroke-width="25" stroke-miterlimit="10" d="M1292.6,25.2c13.6-41.7,54.4-69,98.2-69"/>
					</g>
				</g>
				<g>
					<g>
						<path fill="#808080" stroke="#3B91CD" stroke-width="25" stroke-miterlimit="10" d="M1329.2,136.9"/>
						<path fill="#808080" stroke="#3B91CD" stroke-width="25" stroke-miterlimit="10" d="M1445.9,136.9"/>
					</g>
				</g>
				<g>
					<g>
						<path fill="#DFDFDF" stroke="#3B91CD" stroke-width="25" stroke-miterlimit="10" d="M1482,25.9"/>
					</g>
				</g>
			</g>
			<g>
				<g>
				</g>
				<g>
				</g>
				<g>
				</g>
				<g>
				</g>
				<g>
				</g>
			</g>
		</g>
	</g>
</g>
<g>
	<g>
		<g>
			<g>
				<g>
					<path fill="#A72126" d="M1672.6,103.6l5.3-150.4c83.1,2.9,148.1,72.6,145.2,155.7c-2.9,83.1-72.6,148.1-155.7,145.2
						c-83.1-2.9-148.1-72.6-145.2-155.7c0.6-16.6,3.3-30.6,9-46.2L1672.6,103.6z"/>
				</g>
			</g>
			<g>
				<g>
					<path fill="#3B91CD" d="M1672.6,103.6l-141.4-51.5c22.7-62.5,80.2-101.3,146.7-98.9L1672.6,103.6z"/>
				</g>
			</g>
		</g>
		<g>
			<g>
			</g>
			<g>
			</g>
		</g>
	</g>
	<circle fill="#FFFFFF" cx="1672.6" cy="103.6" r="124"/>
</g>
<path fill="none" d="M1541.2,92.4c1.9-14.2,6.1-28,12.4-41c32.8-68,114.8-96.6,182.8-63.8c53.6,25.9,84.2,82.8,76.2,141.8
	c-1.9,14.2-6.1,28-12.4,41c-32.8,68-114.8,96.6-182.8,63.8C1563.8,208.3,1533.1,151.3,1541.2,92.4z"/>
<text transform="matrix(0.7089 -0.7053 0.7053 0.7089 1575.3376 18.6757)"><tspan x="0" y="0" fill="#F6F7F7" font-family="'GillSans'" font-size="25.3165">$</tspan><tspan x="13.9" y="0" fill="#F6F7F7" font-family="'GillSans'" font-size="25.3165" rotate="5.6">2</tspan><tspan x="26.8" y="1.3" fill="#F6F7F7" font-family="'GillSans'" font-size="25.3165" rotate="11.1">9</tspan><tspan x="39.5" y="3.8" fill="#F6F7F7" font-family="'GillSans'" font-size="25.3165" rotate="16.4">9</tspan></text>
<circle fill="none" cx="1670.3" cy="100.8" r="147.8"/>
<text transform="matrix(0.8507 -0.5257 0.5257 0.8507 1742.4381 230.0378)"><tspan x="0" y="0" fill="#F6F7F7" font-family="'GillSans'" font-size="24.6478">$</tspan><tspan x="15" y="-0.1" fill="#F6F7F7" font-family="'GillSans'" font-size="24.6478" rotate="-5.7">1</tspan><tspan x="28.6" y="-1.6" fill="#F6F7F7" font-family="'GillSans'" font-size="24.6478" rotate="-9.7">,</tspan><tspan x="35.3" y="-2.7" fill="#F6F7F7" font-family="'GillSans'" font-size="24.6478" rotate="-13.6">4</tspan><tspan x="48.8" y="-6.1" fill="#F6F7F7" font-family="'GillSans'" font-size="24.6478" rotate="-19">4</tspan><tspan x="62" y="-10.7" fill="#F6F7F7" font-family="'GillSans'" font-size="24.6478" rotate="-24.4">0</tspan></text>
<rect x="1523.5" y="90.5" fill="none" width="296.1" height="33.7"/>
<text transform="matrix(1 0 0 1 1592.7081 116.3713)" fill="#2D2D2D" font-family="'GillSans-Light'" font-size="38">5x savings</text>
<g>
	<g>
		<g>
			<g>
				<path fill="#A72126" d="M319.1,137.1l5.3-150.4c83.1,2.9,148.1,72.6,145.2,155.7c-2.9,83.1-72.6,148.1-155.7,145.2
					s-148.1-72.6-145.2-155.7c0.6-16.6,3.3-30.6,9-46.2L319.1,137.1z"/>
			</g>
		</g>
		<g>
			<g>
				<path fill="#3B91CD" d="M319.1,137.1L177.6,85.6c22.7-62.5,80.2-101.3,146.7-98.9L319.1,137.1z"/>
			</g>
		</g>
	</g>
	<g>
		<g>
		</g>
		<g>
		</g>
	</g>
</g>
<circle fill="#FFFFFF" cx="319.1" cy="137.1" r="124"/>
<g>
	<g>
		<g>
			<path fill="#3B92CE" d="M549.3,31.6c0.5,1.1,1,2.2,1.6,3.4c-3.4,1.4-5.6,3.8-6.2,7.5c0.4,0.1,0.7,0.2,1,0.2c5.6,1.5,8,8.6,4.4,13
				c-2.1,2.5-4.8,3.5-8,3c-3.2-0.5-5.3-2.4-6.4-5.4c-1.1-3-1.1-6.1-0.2-9.1c2.1-6.9,6.7-11.1,13.8-12.7
				C549.2,31.6,549.2,31.6,549.3,31.6z"/>
			<path fill="#3B92CE" d="M572.3,35c-3.4,1.5-5.6,3.8-6.2,7.4c1,0.4,2,0.7,2.9,1.2c4.6,2.6,5.6,9.2,1.8,12.9
				c-3.8,3.7-11,3.4-13.6-2.7c-1.2-2.7-1.3-5.5-0.6-8.3c1.8-7.4,6.4-12,13.8-13.8c0.2-0.1,0.4-0.1,0.5,0.2
				C571.4,32.9,571.8,33.9,572.3,35z"/>
		</g>
	</g>
</g>
<g>
	<rect x="203.3" y="-150.7" fill="none" width="38.6" height="48.2"/>
	
		<text transform="matrix(1 0 0 1 204.6063 -108.631)" fill="#3B97D3" font-family="'GillSans-SemiBold'" font-size="61.7432" letter-spacing="1">+</text>
	<g>
		<defs>
			<rect id="SVGID_1_" x="21.9" y="-152.6" width="178.3" height="93.1"/>
		</defs>
		<clipPath id="SVGID_2_">
			<use xlink:href="#SVGID_1_"  overflow="visible"/>
		</clipPath>
		<path clip-path="url(#SVGID_2_)" fill="#AF2125" d="M185.2-133.9c-0.2,0-0.3,0.2-0.3,0.3v41.8c0,0.2,0.2,0.3,0.3,0.3h7
			c0.2,0,0.3-0.2,0.3-0.3v-41.8c0-0.2-0.2-0.3-0.3-0.3H185.2z"/>
		<path clip-path="url(#SVGID_2_)" fill="#AF2125" d="M140.2-125.5l-3.9-8.1c-0.1-0.2-0.3-0.3-0.5-0.3H128c-0.2,0-0.3,0.1-0.2,0.3
			l4.3,8.9"/>
		<path clip-path="url(#SVGID_2_)" fill="#AF2125" d="M161.8-128l-11.4,23.8l-11.2-23.4l-7.8,1.5l-3.8-7.9l19.3,40.3
			c0.6,1.3,2,2.2,3.5,2.2c1.5,0,2.8-0.8,3.5-2.2l16.2-33.9L161.8-128z"/>
		<path clip-path="url(#SVGID_2_)" fill="#AF2125" d="M169-125.4l4-8.3c0.1-0.2,0-0.3-0.2-0.3H165c-0.2,0-0.4,0.1-0.5,0.3l-3.7,7.8"
			/>
		<path clip-path="url(#SVGID_2_)" fill="#AF2125" d="M37.2-93.3v-21.2c0-6.5,5.3-11.7,11.7-11.7c6.5,0,11.7,5.3,11.7,11.7v21.2h7.7
			v-21.2c0-10.7-8.7-19.4-19.4-19.4c-10.7,0-19.4,8.7-19.4,19.4v21.2H37.2z"/>
		<path clip-path="url(#SVGID_2_)" fill="#AF2125" d="M60.7-97.7v6c0,0.2,0.2,0.3,0.3,0.3h7c0.2,0,0.3-0.2,0.3-0.3v-6.3"/>
		<path clip-path="url(#SVGID_2_)" fill="#AF2125" d="M29.5-98v6.2c0,0.2,0.2,0.3,0.3,0.3h7c0.2,0,0.3-0.2,0.3-0.3V-98"/>
		<path clip-path="url(#SVGID_2_)" fill="#9D9FA2" d="M104.3-125.4c1.8,0.6,3.3,1.6,4.6,2.8c0.5,0.4,0.7,0.8,1.8,0.5l5.7-1.9
			c0.9-0.3,0.6-1.1,0.3-1.4c-2.4-3.2-5.8-5.8-9.8-7.2c-4.1-1.5-8.3-1.6-12.2-0.6c-0.4,0.1-1.1,0.5-0.7,1.3l3.2,5.1
			c0.6,0.9,1.1,0.7,1.7,0.7C100.7-126.3,102.5-126,104.3-125.4"/>
		<path clip-path="url(#SVGID_2_)" fill="#9D9FA2" d="M87-117.2c-0.6,1.8-0.9,3.6-0.8,5.4c0,0.6,0.2,1.1-0.7,1.7l-5.1,3.2
			c-0.8,0.5-1.2-0.2-1.3-0.7c-1-3.9-0.8-8.1,0.6-12.2c1.4-4.1,4-7.4,7.2-9.8c0.3-0.3,1.1-0.6,1.4,0.3l1.9,5.7c0.3,1-0.1,1.3-0.5,1.8
			C88.6-120.5,87.7-119,87-117.2"/>
		<path clip-path="url(#SVGID_2_)" fill="#9D9FA2" d="M95.2-100c1.8,0.6,3.6,0.9,5.4,0.8c0.6,0,1.1-0.2,1.7,0.7l3.2,5.1
			c0.5,0.8-0.2,1.2-0.7,1.3c-3.9,1-8.1,0.8-12.2-0.6c-4.1-1.4-7.4-4-9.8-7.2c-0.3-0.3-0.5-1.1,0.3-1.4l5.7-1.9
			c1-0.3,1.3,0.1,1.8,0.5C91.9-101.6,93.4-100.6,95.2-100"/>
		<path clip-path="url(#SVGID_2_)" fill="#9D9FA2" d="M112.5-108.1c0.6-1.8,0.9-3.6,0.8-5.4c0-0.6-0.2-1.1,0.7-1.7l5.1-3.2
			c0.8-0.5,1.2,0.2,1.3,0.7c1,3.9,0.8,8.1-0.6,12.2c-1.4,4.1-4,7.4-7.2,9.8c-0.3,0.3-1.1,0.6-1.4-0.3l-1.9-5.7
			c-0.3-1,0.1-1.3,0.5-1.8C110.9-104.8,111.8-106.4,112.5-108.1"/>
	</g>
</g>
<g>
	<circle fill="none" stroke="#A82126" stroke-width="2.5" stroke-miterlimit="10" cx="5.2" cy="134.8" r="25.1"/>
	<g>
		<path fill="none" stroke="#2A2B2A" stroke-width="0.25" stroke-miterlimit="10" d="M22.1,144.6c0,0.3-0.2,0.5-0.5,0.5L-10,145
			c-0.3,0-0.5-0.2-0.5-0.5l0-19.1c0-0.3,0.2-0.5,0.5-0.5l31.6,0.1c0.3,0,0.5,0.2,0.5,0.5L22.1,144.6z"/>
		<path fill-rule="evenodd" clip-rule="evenodd" fill="#2A2B2A" d="M-1.3,124.4c0,0.3-0.2,0.5-0.5,0.5l-3.6,0
			c-0.3,0-0.5-0.2-0.5-0.5l0-1.2c0-0.3,0.2-0.5,0.5-0.5l3.6,0c0.3,0,0.5,0.2,0.5,0.5L-1.3,124.4z"/>
		<g>
			<path fill="#2C2C2C" d="M21.6,132.4l-12.2,0c0.5,1.1,0.9,2.2,0.9,3.5c0,4.3-3.5,7.8-7.8,7.8c-4.3,0-7.8-3.5-7.8-7.8
				c0-1.3,0.3-2.4,0.9-3.5l-5.5,0c-0.3,0-0.5,0.2-0.5,0.5l0,11.5c0,0.3,0.2,0.5,0.5,0.5l31.6,0.1c0.3,0,0.5-0.2,0.5-0.5l0-11.5
				C22.1,132.6,21.9,132.4,21.6,132.4z"/>
		</g>
		
			<ellipse transform="matrix(1 1.754422e-03 -1.754422e-03 1 0.2383 -4.039377e-03)" fill="none" stroke="#2A2B2A" stroke-width="0.25" stroke-miterlimit="10" cx="2.4" cy="135.8" rx="7.8" ry="7.8"/>
	</g>
</g>
<g>
	<g>
		<circle fill="none" stroke="#A82126" stroke-width="2.5" stroke-miterlimit="10" cx="-115.9" cy="1.2" r="24.6"/>
		<path fill="#2D2D2D" d="M-107.9,1c-0.7,2.8-2.2,4.8-3.3,5.2c5-10.7,1.1-18.8-5.4-22.3c4.7,6.6-6.4,12.5-9.3,18.2
			c-4.1,8.1,0.8,13,5.1,15.8c-2.1-5.2-0.2-11.5,4.8-14.3c-1.2,3.4,3.4,8.2,2,13.1c1.1-1.4,2.5-2.5,2.2-4c0.9,0.8,2,3,1.4,5.4
			C-101.3,11.8-105.8,3.5-107.9,1z"/>
	</g>
</g>
<g>
	<circle fill="none" stroke="#A82126" stroke-width="2.5" stroke-miterlimit="10" cx="25.6" cy="25.6" r="24.3"/>
	<g id="zYVVv0.tif_2_">
		<g>
			<path fill="#2C2C2C" d="M32.2,16.2c1.1,1.1,2.3,2.2,3.3,3.4c0.6,0.7,1,0.5,1.5-0.1c0.9-0.9,1.8-1.8,2.7-2.7
				c0.7-0.7,1.6-0.9,2.3-0.1c0.7,0.8,0.6,1.6-0.2,2.3c-1.4,1.4-2.7,2.7-4.1,4.1c-1,1-1.9,1-3,0c-0.8-0.8-1.5-2.3-2.5-2.1
				c-0.8,0.1-1.5,1.5-2.2,2.3c-2,2.3-2.1,2.5,0.2,4.4c2.1,1.8,2.6,3.6,1.7,6.2c-0.8,2.5-1.2,5.1-1.8,7.7c-0.3,1.3-1,1.9-2.4,1.7
				c-1.3-0.3-1.6-1.3-1.3-2.4c0.4-2.2,0.9-4.4,1.5-6.6c0.3-1.1,0.1-1.8-0.8-2.4c-0.2-0.2-0.4-0.4-0.6-0.6c-1-0.9-1.8-2.6-2.9-2.4
				c-1,0.1-1.9,1.7-2.7,2.7c-1.1,1.6-2.5,2.1-4.4,2c-2.2-0.1-4.4,0-6.6,0c-1.3,0-2.2-0.5-2.2-1.9c0-1.3,0.9-1.9,2.2-1.9
				c1.8,0,3.6,0,5.5,0c0.6,0,1.1-0.1,1.6-0.6c3-3.6,6.1-7.1,9.3-10.8c-1.4-0.3-2.5-0.4-3.4,0.9c-1,1.4-2.2,2.6-3.3,3.9
				c-0.7,0.8-1.5,1.1-2.3,0.5c-0.9-0.7-0.7-1.6,0.1-2.4c1.5-1.7,2.9-3.3,4.3-5c0.6-0.8,1.3-1.1,2.3-1c2.4,0.1,4.7-0.2,7.1,0.2
				c0.8,0.1,0.5-0.5,0.4-0.7c-0.1-0.5-0.4-0.9-0.4-1.4c-0.1-1.7,1-3,2.7-3.2c1.7-0.1,3,1,3.1,2.7C37,14.8,35.8,16,34,16
				c-0.5,0-1,0-1.5-0.1c-0.1-0.3-0.3-0.5-0.5-0.3C31.7,16,32.1,16,32.2,16.2z"/>
		</g>
	</g>
</g>
</svg>
